<?xml version="1.0" encoding="UTF-8" standalone="no"?>
<svg
   width="140"
   height="302"
   viewBox="0 0 140 302"
   fill="none"
   version="1.1"
   id="svg69"
   sodipodi:docname="a0lt2-xbhzt.svg"
   xmlns:inkscape="http://www.inkscape.org/namespaces/inkscape"
   xmlns:sodipodi="http://sodipodi.sourceforge.net/DTD/sodipodi-0.dtd"
   xmlns="http://www.w3.org/2000/svg"
   xmlns:svg="http://www.w3.org/2000/svg">
  <sodipodi:namedview
     id="namedview71"
     pagecolor="#ffffff"
     bordercolor="#000000"
     borderopacity="0.25"
     inkscape:showpageshadow="2"
     inkscape:pageopacity="0.0"
     inkscape:pagecheckerboard="0"
     inkscape:deskcolor="#d1d1d1" />
  <g
     clip-path="url(#clip0_1_235)"
     id="g62">
    <path
       d="M93.42 10.14C93.09 12.85 92.65 19.69 96.57 26.66C98.56 30.2 101.02 32.61 102.85 34.11C101.64 35.43 101 37.09 100.5 38.82C99.68 41.69 99.43 43.03 98.99 44.06C98.1 46.15 94.75 48.24 83.75 47.98"
       fill="black"
       id="path2" />
    <path
       d="M93.66 7.5C92.06 1.81 80.8 0.449997 79.57 0.309997C75.47 -0.150003 76.47 -0.330003 67.09 1.38C63.38 2.06 59.67 2.74 55.95 3.41C55.58 3.48 55.17 3.56 54.92 3.84C54.62 4.17 54.62 4.66 54.63 5.11C55.23 26.45 63.41 34.89 63.41 34.89C66.01 38.23 68.21 41 70.89 40.75C72.87 40.56 74.09 38.81 77.86 33.38C82.69 26.43 85.1 22.95 85.16 22.86C93.4 10.14 94.15 9.22 93.66 7.5Z"
       fill="black"
       id="path4" />
    <path
       d="M63.55 46.44C77.18 52.7 87.21 64.65 91.28 79.04C91.8 80.89 94.7 80.11 94.17 78.24C90.89 66.62 83.91 56.28 74.14 49.15C71.3 47.08 68.25 45.31 65.06 43.85C63.32 43.05 61.79 45.64 63.55 46.44Z"
       fill="black"
       id="path6" />
    <path
       d="M62.38 44.66C61.63 46.59 61.52 48.69 61.39 50.74C61.28 52.47 61.23 54.39 60.29 55.91C59.35 57.43 57.62 58.03 56.3 59C54.75 60.15 53.56 61.69 54.15 63.72C54.69 65.57 57.58 64.78 57.04 62.92C56.97 62.69 56.96 62.56 57 62.48C57.11 62.21 57.32 62.03 57.54 61.83C58.14 61.29 58.86 60.89 59.54 60.46C61.12 59.46 62.51 58.37 63.29 56.62C64.87 53.09 63.87 49.04 65.26 45.46C65.55 44.7 64.94 43.81 64.21 43.61C63.36 43.38 62.66 43.9 62.36 44.66H62.38Z"
       fill="black"
       id="path8" />
    <path
       d="M27.89 137.95C30.49 141.2 29.43 146.34 26.45 149.26C23.47 152.18 19.14 153.24 14.98 153.5C13.35 153.6 11.54 153.53 10.36 152.4C9.59 151.66 9.24 150.6 8.92 149.58C7.37 144.68 5.82 139.79 4.27 134.89C3.21 131.55 2.14 127.99 3 124.59C3.86 121.19 7.46 118.23 10.77 119.4C5.93 116.84 4.97 110.18 6.21 104.85C7.45 99.52 10.26 94.56 10.76 89.11C11.18 84.57 10.13 79.4 13.07 75.9C14.91 73.71 17.85 72.84 20.63 72.16C28.46 70.23 36.44 68.86 44.47 68.05L43.46 81.41"
       fill="black"
       id="path10" />
    <path
       d="M16.72 151.9C15.01 155.75 17.87 160.42 21.74 162.09C25.61 163.76 30.05 163.18 34.18 162.31C40.78 160.92 47.68 158.55 51.7 153.14"
       fill="black"
       id="path12" />
    <path
       d="M88.74 83.96L91.69 136.53C92.1 143.84 92.51 151.23 91.15 158.42C90.14 163.8 88.16 168.95 86.19 174.06C78.31 194.52 70.33 215.2 57.88 233.26C49.95 244.76 39.88 256.1 39.08 270.05L19.14 264.27C17.13 263.69 15.02 263.05 13.54 261.56C10.79 258.79 11.68 253.39 15.18 251.65L23.31 256.31"
       fill="black"
       id="path14" />
    <path
       d="M16.9 250.42C16.78 244.96 20.82 240.45 23.8 235.86C27.69 229.88 29.99 223.03 32.16 216.24C38.24 197.19 43.55 177.89 48.06 158.4"
       fill="black"
       id="path16" />
    <path
       d="M91.41 160.8C105.39 189.75 105.09 224.03 119.28 252.89L98.56 263.95C95.16 265.76 90.44 267.38 87.92 264.46C85.87 262.09 87.12 258.13 89.64 256.27C92.16 254.41 95.45 254.06 98.58 253.78"
       fill="black"
       id="path18" />
    <path
       d="M71.68 211.61C76.49 227.71 81.91 243.62 87.91 259.32L71.68 211.61Z"
       fill="black"
       id="path20" />
    <path
       d="M89.45 78.83C90.5 78.32 91.77 78.86 92.58 79.58C93.77 80.64 94.17 82.25 94.24 83.79C94.42 87.61 93.1 91.38 94.26 95.15C94.82 96.99 97.72 96.21 97.15 94.35C95.82 90.01 98.07 85.45 96.83 81.05C95.78 77.3 91.76 74.36 87.93 76.23C86.2 77.08 87.71 79.67 89.44 78.82L89.45 78.83Z"
       fill="black"
       id="path22" />
    <path
       d="M87.87 87.25C91.9 87.08 94.22 82 93.06 78.14C91.89 74.28 88.48 71.58 85.12 69.36"
       fill="black"
       id="path24" />
    <path
       d="M7.68 283.47C13.01 285.01 19.1 283.61 23.22 279.89L41.07 298.75C28.01 299.46 14.87 298.72 1.98 296.53C1.37 296.43 0.69 296.28 0.31 295.79C-0.14 295.21 -0.0100001 294.39 0.15 293.68C1.25 288.93 3.14 284.37 5.72 280.24"
       fill="black"
       id="path26" />
    <path
       d="M102.59 286.57C107.97 285.19 112.49 280.88 114.15 275.58L139.11 282.73C128.23 289.99 116.54 296.03 104.33 300.72C103.75 300.94 103.1 301.16 102.52 300.93C101.84 300.66 101.53 299.89 101.31 299.2C99.84 294.56 99.14 289.67 99.26 284.79"
       fill="black"
       id="path28" />
    <path
       d="M16.29 257.6C12.13 266.86 7.97 276.12 3.8 285.39C3.02 287.14 5.6 288.66 6.39 286.9C10.55 277.64 14.71 268.38 18.88 259.11C19.66 257.36 17.08 255.84 16.29 257.6Z"
       fill="black"
       id="path30" />
    <path
       d="M33.23 260.9C28.42 269.15 23.61 277.4 18.8 285.65C17.83 287.32 20.42 288.83 21.39 287.16C26.2 278.91 31.01 270.66 35.82 262.41C36.79 260.74 34.2 259.23 33.23 260.9Z"
       fill="black"
       id="path32" />
    <path
       d="M94.13 260.12C96.29 269.83 98.46 279.53 100.62 289.24C101.04 291.12 103.93 290.33 103.51 288.44C101.35 278.73 99.18 269.03 97.02 259.32C96.6 257.44 93.71 258.23 94.13 260.12Z"
       fill="black"
       id="path34" />
    <path
       d="M107.28 251.34C109.1 261.71 110.92 272.07 112.74 282.44C113.07 284.34 115.96 283.53 115.63 281.64C113.81 271.27 111.99 260.91 110.17 250.54C109.84 248.64 106.95 249.45 107.28 251.34Z"
       fill="black"
       id="path36" />
    <path
       d="M15.93 119.8C16.14 118.34 16.43 116.9 16.82 115.48C17.01 114.78 17.23 114.09 17.46 113.41C17.58 113.06 17.71 112.7 17.84 112.36C17.9 112.21 17.96 112.06 18.02 111.91C18.04 111.85 18.24 111.37 18.18 111.53L15.82 111.83C15.65 111.62 15.93 111.97 15.93 111.98C16.01 112.1 16.09 112.22 16.17 112.34C16.3 112.54 16.42 112.75 16.53 112.96C16.6 113.09 16.66 113.21 16.73 113.34C16.73 113.35 16.92 113.77 16.81 113.51C16.91 113.75 17 114 17.08 114.25C17.16 114.5 17.23 114.75 17.29 115.01C17.32 115.15 17.35 115.29 17.38 115.43C17.38 115.46 17.44 115.84 17.42 115.66C17.4 115.48 17.44 115.85 17.44 115.89C17.45 116.03 17.46 116.18 17.47 116.32C17.48 116.61 17.47 116.89 17.47 117.18C17.43 117.96 18.19 118.72 18.97 118.68C19.81 118.64 20.43 118.02 20.47 117.18C20.6 114.45 19.65 111.84 17.95 109.72C17.39 109.02 15.95 109.19 15.59 110.02C14.36 112.91 13.48 115.9 13.04 119.01C12.93 119.78 13.23 120.66 14.09 120.86C14.8 121.02 15.82 120.64 15.94 119.81L15.93 119.8Z"
       fill="black"
       id="path38" />
    <path
       d="M53.91 67.96C53.93 93.98 49.81 108.39 45.81 116.84C44.52 119.56 41.24 126.34 43.01 133.78C44.18 138.7 47.91 142.56 51.48 146.14C55.89 150.57 60.3 155 64.72 159.43C65.13 159.84 65.72 160.59 66.76 160.89C70.53 161.98 75.26 156.26 77.42 153.37"
       fill="white"
       id="path40" />
    <path
       d="M52.41 67.96C52.41 82.84 51.47 98.44 46.06 112.48C45.23 114.64 44.17 116.71 43.28 118.85C41.63 122.83 40.65 127.2 41.13 131.53C41.66 136.28 43.96 140.18 47.09 143.7C50.55 147.61 54.41 151.2 58.1 154.9C60.14 156.95 62.11 159.1 64.22 161.06C65.73 162.46 67.71 162.86 69.65 162.21C73.51 160.93 76.38 157.26 78.73 154.13C79.89 152.59 77.29 151.09 76.14 152.62C74.3 155.07 71.95 158.14 68.99 159.27C67.19 159.96 66.3 158.88 65.09 157.67C63.23 155.8 61.37 153.94 59.52 152.07C56.07 148.6 52.46 145.23 49.21 141.57C46.26 138.24 44.17 134.52 44.02 129.98C43.81 123.69 46.97 118.55 49.11 112.88C51.07 107.68 52.37 102.24 53.29 96.77C54.89 87.26 55.41 77.59 55.41 67.95C55.41 66.02 52.41 66.02 52.41 67.95V67.96Z"
       fill="black"
       id="path42" />
    <path
       d="M44.46 68.06C41.44 73.09 42.56 78.9 43.17 81.28C44.02 79.96 50.62 70.11 62.78 68.96C73.36 67.95 83.86 73.93 89.13 84.08C89.54 79.75 89.95 75.43 90.36 71.1C87.47 68.26 79.24 60.96 67.05 60.19C63.28 59.95 49.82 59.14 44.47 68.06H44.46Z"
       fill="black"
       id="path44" />
    <path
       d="M96.47 7.19C90.66 24.9 84.85 42.61 79.04 60.32L53.52 61.45C57.33 53.52 61.13 45.58 64.94 37.65"
       fill="white"
       id="path46" />
    <path
       d="M24.04 289.12L27.65 287.68C28.01 287.54 28.31 287.17 28.17 286.76C28.06 286.41 27.64 286.08 27.25 286.24L23.64 287.68C23.28 287.82 22.98 288.19 23.12 288.6C23.23 288.95 23.65 289.28 24.04 289.12Z"
       fill="white"
       id="path48" />
    <path
       d="M29.32 292.83L31.38 291.84C31.54 291.76 31.68 291.56 31.72 291.39C31.77 291.21 31.75 290.97 31.64 290.81C31.53 290.65 31.38 290.51 31.19 290.47C30.98 290.42 30.8 290.45 30.61 290.55L28.55 291.54C28.39 291.62 28.25 291.82 28.21 291.99C28.16 292.17 28.18 292.41 28.29 292.57C28.4 292.73 28.55 292.87 28.74 292.91C28.95 292.96 29.13 292.93 29.32 292.83Z"
       fill="white"
       id="path50" />
    <path
       d="M121.69 278.78C120.54 279.4 119.79 280.69 119.8 281.99C119.8 282.38 120.14 282.76 120.55 282.74C120.96 282.72 121.3 282.41 121.3 281.99C121.3 281.86 121.3 281.74 121.32 281.61L121.29 281.81C121.32 281.6 121.37 281.39 121.44 281.18C121.45 281.15 121.46 281.12 121.47 281.09C121.5 281.01 121.4 281.25 121.44 281.16C121.46 281.11 121.48 281.07 121.51 281.02C121.56 280.92 121.62 280.82 121.68 280.72C121.71 280.68 121.74 280.64 121.77 280.6C121.82 280.53 121.66 280.73 121.72 280.66C121.74 280.64 121.76 280.61 121.78 280.59C121.85 280.51 121.93 280.43 122.01 280.36C122.05 280.33 122.09 280.29 122.12 280.26C122.23 280.17 122.08 280.3 122.07 280.29L122.13 280.24C122.22 280.17 122.32 280.11 122.42 280.06C122.77 279.87 122.9 279.37 122.69 279.03C122.46 278.68 122.03 278.56 121.66 278.76L121.69 278.78Z"
       fill="white"
       id="path52" />
    <path
       d="M127.95 280.82C127.97 280.91 127.99 281 128.01 281.1L127.98 280.9C128 281.09 128 281.27 127.98 281.46L128.01 281.26C127.98 281.46 127.93 281.65 127.86 281.83L127.94 281.65C127.87 281.82 127.77 281.99 127.66 282.14L127.78 281.99C127.78 281.99 127.7 282.09 127.66 282.13C127.53 282.28 127.44 282.46 127.44 282.66C127.44 282.84 127.52 283.06 127.66 283.19C127.95 283.45 128.44 283.5 128.72 283.19C129.4 282.45 129.67 281.4 129.41 280.43C129.31 280.05 128.87 279.78 128.49 279.91C128.11 280.04 127.86 280.43 127.97 280.83L127.95 280.82Z"
       fill="white"
       id="path54" />
    <path
       d="M24.26 256.98L30.81 259.29C31.19 259.42 31.63 259.14 31.73 258.77C31.84 258.36 31.59 257.98 31.21 257.85L24.66 255.54C24.28 255.41 23.84 255.69 23.74 256.06C23.63 256.47 23.88 256.85 24.26 256.98Z"
       fill="white"
       id="path56" />
    <path
       d="M100.3 253.85C103.58 253.31 106.75 252.28 109.73 250.82C110.6 250.39 109.84 249.1 108.97 249.52C106.11 250.93 103.05 251.89 99.9 252.4C99.5 252.47 99.28 252.96 99.38 253.32C99.5 253.75 99.9 253.91 100.3 253.84V253.85Z"
       fill="white"
       id="path58" />
    <path
       d="M79.3 149.43C75.52 153.79 71.07 157.51 66.1 160.44C65.27 160.93 66.02 162.23 66.86 161.74C71.93 158.75 76.51 154.95 80.36 150.49C80.99 149.76 79.93 148.7 79.3 149.43Z"
       fill="white"
       id="path60" />
  </g>
  <defs
     id="defs67">
    <clipPath
       id="clip0_1_235">
      <rect
         width="139.1"
         height="301.03"
         fill="white"
         id="rect64" />
    </clipPath>
  </defs>
</svg>
