<svg width="152" height="309" viewBox="0 0 152 309" fill="none" xmlns="http://www.w3.org/2000/svg">
<g clip-path="url(#clip0_1_58)">
<path d="M55.43 62.85C57.97 85.5 53.67 107.36 48.18 129.48C45.36 140.84 41.46 152.29 42.57 163.94C56.04 162.82 64.34 143.9 77.69 146.03C81.26 146.6 84.38 148.69 87.74 150.02C91.1 151.35 95.31 151.78 98.01 149.37C99.85 147.73 100.53 145.18 101.07 142.77C107.75 113.11 107.28 81.87 99.7 52.42" fill="black"/>
<path d="M50.98 13.25C52.3 17.23 52.8 21.39 52.41 25.57C52.21 27.73 51.72 29.84 51.06 31.91C50.47 33.79 50.07 35.76 51.27 37.49C52.17 38.79 53.75 39.35 54.67 40.6C55.66 41.94 55.65 43.87 55.96 45.44C56.57 48.53 58.51 50.85 61.47 51.96C64.43 53.07 68.09 52.58 70.51 50.34C71.93 49.02 69.8 46.91 68.39 48.22C66.71 49.78 64.13 49.9 62.09 48.99C59.34 47.77 58.99 45.31 58.52 42.63C58.26 41.13 57.81 39.67 56.82 38.49C55.95 37.45 54.4 36.89 53.7 35.73C53.23 34.95 53.59 33.96 53.83 33.16C54.11 32.23 54.41 31.31 54.64 30.36C55.07 28.58 55.35 26.74 55.48 24.91C55.78 20.71 55.22 16.45 53.89 12.45C53.29 10.63 50.39 11.41 51 13.25H50.98Z" fill="black"/>
<path d="M51.37 8.77C52.06 9.99 57.48 6.39 64.3 8.08C65.47 8.37 69.53 8.64 71.23 11.96C73.35 16.12 70.51 22.32 74.14 25.24C74.6 24.79 78.15 21.43 82.27 22.28C87.39 23.34 89.45 30.08 88.93 34.42C88.75 35.88 88.24 37.43 87.88 37.4C86.34 37.27 82.8 7.83 81.42 3.76C81.3 3.41 80.98 2.48 80.12 1.76C79.45 1.2 78.55 0.99 77.69 0.83C62.48 -2.01 56.29 3.17 56.29 3.17C53.44 5.07 50.85 7.84 51.37 8.76V8.77Z" fill="black"/>
<path d="M72.84 50.49C79.02 47.7 84.33 43 87.85 37.2C89.76 39.79 91.72 42.4 93.73 45.03C95.7 47.61 97.66 50.14 99.62 52.62C84.89 56.03 70.16 59.44 55.44 62.85" fill="black"/>
<path d="M53.66 67.94C42.52 80.61 33.76 94.84 26.79 110.18C23.09 118.33 19.24 126.45 15.87 134.75C12.5 143.05 10.27 151.11 11.59 159.68C11.87 161.49 12.38 163.32 11.2 164.91C10.36 166.04 9.1 166.83 7.94 167.59C5.37 169.26 2.76 170.91 1.63 173.9C1.34 174.66 1.95 175.55 2.68 175.75C5.38 176.48 7.72 178.2 9.26 180.54C10.03 181.71 10.59 182.98 10.91 184.34C11.28 185.9 11.08 187.45 11.19 189.03C11.3 190.61 11.77 192.1 12.97 193.18C14.17 194.26 15.77 194.81 17.24 195.45C20.95 197.06 24.65 198.68 28.36 200.29C30.11 201.05 31.64 198.47 29.87 197.7C26.09 196.05 22.31 194.41 18.53 192.76C17.26 192.21 15.23 191.68 14.52 190.36C13.81 189.04 14.27 187 14.12 185.5C13.53 179.58 9.23 174.43 3.48 172.86L4.53 174.71C5.4 172.41 8.02 171.15 9.94 169.87C12.05 168.47 14.24 166.75 14.82 164.13C15.28 162.04 14.59 159.98 14.36 157.91C14.13 155.84 14.15 153.79 14.32 151.74C14.69 147.48 15.87 143.31 17.32 139.3C20.31 131 24.29 123.02 27.9 114.98C31.51 106.94 35.01 99.63 39.41 92.37C44.2 84.47 49.68 77.01 55.78 70.07C57.05 68.62 54.94 66.49 53.66 67.95V67.94Z" fill="black"/>
<path d="M88.61 195.35C91.26 195.2 93.89 194.93 96.51 194.53C98.56 194.22 101.84 194.2 102.97 192.12C103.49 191.16 103.32 190.06 102.99 189.07C102.6 187.9 102.21 186.75 102 185.53C101.55 182.94 101.78 180.3 102.52 177.79L100.67 178.84C104.14 180.03 104.95 184.58 105.71 187.68C106.19 189.64 106.52 191.97 108.5 193C110.48 194.03 113.5 193.79 115.68 193.71C120.89 193.52 126.18 192.52 131.19 191.1C135.84 189.78 140.34 187.82 144.09 184.72C147.84 181.62 150.86 177.14 151.63 172.18C151.74 171.46 151.54 170.9 150.94 170.49C147.03 167.77 146.41 161.68 145.5 157.42C144.24 151.52 143.22 145.57 142.45 139.58C142.21 137.69 139.2 137.67 139.45 139.58C140.29 146.16 141.4 152.69 142.82 159.17C143.92 164.2 144.91 169.94 149.43 173.08L148.74 171.39C147.33 180.47 138.99 185.7 130.82 188.09C126.16 189.45 121.25 190.42 116.4 190.68C115.22 190.74 114.03 190.76 112.85 190.71C111.97 190.68 110.29 190.82 109.62 190.13C109.09 189.58 108.99 188.42 108.81 187.7C108.58 186.78 108.36 185.85 108.11 184.94C107.08 181.16 105.45 177.32 101.47 175.96C100.69 175.69 99.84 176.27 99.62 177.01C98.39 181.23 98.58 185.59 100.03 189.72C100.1 189.92 100.43 190.55 100.33 190.75C100.22 190.98 99.17 191.07 98.96 191.11C97.88 191.32 96.8 191.51 95.71 191.67C93.36 192.03 90.98 192.25 88.61 192.38C86.69 192.49 86.68 195.49 88.61 195.38V195.35Z" fill="black"/>
<path d="M100.72 56.19L125.5 64.74C126.65 65.14 127.85 65.56 128.7 66.44C129.89 67.67 130.14 69.49 130.5 71.16C132.51 80.36 139.46 87.69 142.68 96.53C144.74 102.17 145.21 108.24 145.67 114.22C146.28 122.13 146.76 130.62 142.7 137.44C139.7 142.48 134.47 146.09 132.34 151.55C129.97 148.82 124.97 150.48 122.32 148.01C121.35 147.1 120.89 145.78 120.46 144.52C116.17 131.82 111.82 118.62 113.26 105.3" fill="black"/>
<path d="M119.34 146.46C117.6 150.68 116.77 155.26 116.89 159.82C116.91 160.56 117.57 161.42 118.39 161.32C121.02 161.01 123.66 160.85 126.31 160.83C128.29 160.82 130.35 161.07 132.32 160.75C134.99 160.31 135.92 157.66 135.83 155.26C135.73 152.53 134.85 149.85 133.91 147.31C133.63 146.55 132.89 146.03 132.06 146.26C131.33 146.46 130.73 147.34 131.01 148.11C131.47 149.36 131.9 150.61 132.24 151.9C132.37 152.39 132.49 152.88 132.59 153.38C132.64 153.61 132.68 153.85 132.72 154.08C132.75 154.28 132.74 154.18 132.77 154.48C132.84 155.15 132.86 155.83 132.79 156.5C132.84 156.07 132.75 156.69 132.7 156.84C132.67 156.94 132.62 157.05 132.6 157.15C132.57 157.33 132.79 156.84 132.6 157.16C132.52 157.29 132.42 157.43 132.35 157.57C132.42 157.43 132.6 157.32 132.42 157.46C132.36 157.5 132.3 157.57 132.25 157.63C132.07 157.84 132.32 157.59 132.28 157.61C132.18 157.66 132.08 157.72 131.99 157.77C131.99 157.77 132.27 157.71 131.99 157.75C131.85 157.77 131.71 157.81 131.58 157.84C131.38 157.89 131.88 157.82 131.67 157.83C131.62 157.83 131.56 157.84 131.51 157.84C131.35 157.84 131.19 157.86 131.03 157.86C130.65 157.87 130.26 157.86 129.88 157.86C128.82 157.84 127.77 157.81 126.71 157.81C123.94 157.81 121.16 157.98 118.41 158.3L119.91 159.8C119.81 155.47 120.61 151.23 122.26 147.23C122.57 146.48 121.93 145.58 121.21 145.38C120.35 145.14 119.67 145.68 119.36 146.43L119.34 146.46Z" fill="black"/>
<path d="M61.11 138.96C56.9 146.88 45.23 175.17 40.61 182.86C52.11 182.59 62.16 192.26 65.27 203.34C65.67 204.77 66.5 206.59 67.96 206.34C68.44 206.26 68.84 205.94 69.22 205.63C86.71 191.28 98.15 169.79 100.31 147.27" fill="black"/>
<path d="M44.39 182.81C39.36 203.39 34.34 223.97 29.31 244.56C28.85 246.44 31.74 247.24 32.2 245.36C37.23 224.78 42.25 204.2 47.28 183.61C47.74 181.73 44.85 180.93 44.39 182.81Z" fill="black"/>
<path d="M62.14 194.52C61.49 202.29 58.19 209.67 54.72 216.54C50.93 224.04 46.59 231.25 42.92 238.81C41.01 242.74 39.27 246.77 38.06 250.97C37.53 252.83 40.42 253.62 40.95 251.77C43.18 244.01 47.17 236.86 51.02 229.81C55.07 222.4 59.27 214.99 62.2 207.04C63.69 203 64.78 198.82 65.14 194.52C65.3 192.6 62.3 192.61 62.14 194.52Z" fill="black"/>
<path d="M42.06 252.73C40.89 249.59 38.1 248.54 35.55 246.72C34.66 246.08 33.83 245.36 33.05 244.59C32.27 243.82 31.53 242.91 30.47 242.44C28.46 241.54 26.75 242.58 25.57 244.21C24.39 245.84 23.76 247.24 21.59 247.2C19.6 247.16 17.66 246.21 16.02 245.16C12.36 242.83 7.61 239.32 3.18 242C-0.289998 244.11 -0.689998 248.85 0.890002 252.26C2.89 256.56 7.71 258.79 11.61 261C16.83 263.95 22.05 266.89 27.27 269.84C28.37 270.46 29.47 271.09 30.57 271.72C31.54 272.28 32.58 272.63 33.7 272.3C35.51 271.76 36.39 269.88 37.03 268.27C38.51 264.53 40.05 260.84 41.59 257.13C42.19 255.68 42.6 254.27 42.06 252.73C41.44 250.92 38.54 251.69 39.17 253.53C39.24 253.73 39.29 253.94 39.34 254.15C39.42 254.49 39.32 253.86 39.34 254.1C39.34 254.22 39.34 254.33 39.34 254.45C39.32 254.79 39.42 254.11 39.34 254.46C39.32 254.56 39.3 254.67 39.27 254.77C39.19 255.06 39.09 255.34 38.99 255.61C38.24 257.62 37.14 259.91 36.26 262.07C35.51 263.92 34.86 265.81 34.08 267.64C33.87 268.12 33.55 269.03 33.06 269.31C32.48 269.64 31.48 268.76 30.98 268.48C26.49 265.94 21.99 263.4 17.5 260.87C15.27 259.61 13.04 258.35 10.81 257.09C9.08 256.11 7.3 255.12 5.82 253.77C3.61 251.76 1.6 247.78 4.07 245.12C6.99 241.99 11.98 246.13 14.53 247.75C17.37 249.56 21.36 251.14 24.64 249.57C26.47 248.69 27.06 247 28.31 245.56C28.9 244.88 29.36 245.12 29.96 245.71C30.84 246.56 31.67 247.45 32.63 248.23C33.97 249.32 35.41 250.21 36.87 251.11C37.88 251.73 38.76 252.39 39.19 253.53C39.86 255.32 42.76 254.55 42.08 252.73H42.06Z" fill="black"/>
<path d="M83.37 207.82C89.85 223.55 93.03 240.48 92.64 257.49C92.6 259.42 95.6 259.42 95.64 257.49C96.03 240.24 92.84 222.97 86.26 207.02C85.53 205.26 82.63 206.03 83.37 207.82Z" fill="black"/>
<path d="M68.51 217.61C71.59 233.16 76.39 248.31 82.77 262.81C83.55 264.57 86.13 263.05 85.36 261.3C79.09 247.04 74.43 232.09 71.4 216.81C71.03 214.92 68.13 215.72 68.51 217.61Z" fill="black"/>
<path d="M59.05 291.66C52.89 283.93 42.21 280.25 32.58 282.46C28.04 283.5 22.58 286.86 23.96 292.35C24.58 294.8 26.75 296.2 29.09 296.73C31.92 297.37 34.96 297.48 37.85 297.57C44.9 297.78 51.98 296.95 58.8 295.2C60.67 294.72 59.88 291.83 58 292.31C52.87 293.63 47.62 294.4 42.32 294.57C39.65 294.65 36.97 294.59 34.31 294.38C32.33 294.23 29.65 294.27 27.94 293.1C26.23 291.93 26.61 289.49 27.84 288.07C29.26 286.44 31.51 285.75 33.55 285.31C37.54 284.43 41.75 284.75 45.63 285.99C50.09 287.42 54.01 290.12 56.92 293.78C58.12 295.29 60.23 293.15 59.04 291.66H59.05Z" fill="black"/>
<path d="M98.94 263.64C101.83 261.18 107.55 257.12 115.06 256.92C117.45 256.86 122.23 256.73 124.49 259.81C124.67 260.06 126.47 262.22 125.51 264.21C124.79 265.71 123.36 266.72 121.98 267.65C103.47 280.11 82.6 289.07 60.82 293.9C55.08 290.49 49.33 287.08 43.59 283.67C49.95 281.94 56.32 280.21 62.68 278.49" fill="black"/>
<path d="M49.35 295.04L49.23 301.93C49.22 302.71 49.93 303.47 50.73 303.43C51.53 303.39 52.22 302.77 52.23 301.93L52.35 295.04C52.36 294.26 51.65 293.5 50.85 293.54C50.05 293.58 49.36 294.2 49.35 295.04Z" fill="black"/>
<path d="M49.52 301.04L38.82 302.7C38.02 302.82 37.58 303.83 37.77 304.55C38 305.4 38.81 305.72 39.62 305.6L50.32 303.94C51.12 303.82 51.56 302.81 51.37 302.09C51.14 301.24 50.33 300.92 49.52 301.04Z" fill="black"/>
<path d="M51.13 304.05L58.69 306.65C59.43 306.91 60.36 306.36 60.54 305.6C60.73 304.77 60.29 304.03 59.49 303.75L51.93 301.15C51.19 300.89 50.26 301.44 50.08 302.2C49.89 303.03 50.33 303.77 51.13 304.05Z" fill="black"/>
<path d="M62.12 300.62C61.6 300.84 61.14 301.08 60.75 301.49C60.36 301.9 60.11 302.35 59.91 302.88C59.59 303.71 59.57 304.71 59.82 305.56C60.1 306.53 60.75 307.41 61.65 307.88C62.62 308.39 63.71 308.49 64.77 308.25C66.86 307.77 68.36 305.86 68.32 303.72C68.28 301.45 66.73 299.28 64.52 298.66C63.81 298.46 63.04 298.43 62.33 298.62C61.54 298.83 60.93 299.3 60.46 299.94C60.07 300.46 59.88 301.12 59.85 301.77C59.82 302.54 60.13 303.22 60.61 303.8C61.09 304.38 62.22 304.36 62.73 303.8C63.32 303.16 63.27 302.32 62.73 301.68L62.87 301.86C62.87 301.86 62.82 301.78 62.79 301.73L62.88 301.95C62.88 301.95 62.85 301.86 62.84 301.81C62.74 301.55 62.84 302.2 62.84 301.92C62.84 301.85 62.85 301.76 62.84 301.69C62.88 302.01 62.79 301.98 62.84 301.79C62.84 301.76 62.89 301.68 62.89 301.64L62.8 301.85C62.8 301.85 62.84 301.76 62.87 301.71C62.9 301.66 62.92 301.62 62.95 301.58C63.04 301.45 63.01 301.49 62.86 301.7C62.91 301.67 62.98 301.58 63.02 301.53C63.21 301.33 62.71 301.69 62.96 301.58L63.03 301.54C63.18 301.47 63.15 301.48 62.94 301.57C62.99 301.57 63.07 301.53 63.12 301.51L63.21 301.49C63.37 301.46 63.34 301.46 63.1 301.49C63.12 301.51 63.36 301.48 63.39 301.49H63.49C63.66 301.51 63.62 301.5 63.38 301.47C63.38 301.49 63.73 301.55 63.77 301.56C63.8 301.56 64.04 301.63 64.05 301.66C64.05 301.67 63.71 301.48 63.96 301.63C64.1 301.71 64.29 301.88 64.44 301.92L64.27 301.79C64.27 301.79 64.36 301.86 64.4 301.9C64.46 301.96 64.53 302.01 64.59 302.07C64.65 302.13 64.71 302.19 64.76 302.26L64.82 302.32C64.92 302.44 64.89 302.41 64.74 302.22C64.8 302.37 64.94 302.51 65.02 302.65C65.06 302.72 65.1 302.8 65.14 302.88C65.29 303.16 65.02 302.54 65.12 302.84C65.17 302.97 65.21 303.11 65.25 303.24C65.27 303.32 65.29 303.41 65.31 303.49C65.37 303.75 65.28 303.09 65.31 303.51C65.32 303.68 65.32 303.84 65.31 304.01C65.31 304.06 65.28 304.34 65.31 304.06C65.34 303.78 65.31 304.06 65.29 304.11C65.25 304.27 65.17 304.43 65.14 304.59C65.21 304.25 65.23 304.39 65.15 304.52C65.1 304.61 65.04 304.69 64.99 304.78C64.84 305.01 65.2 304.56 65.06 304.69C65.01 304.73 64.98 304.79 64.93 304.83C64.88 304.88 64.82 304.94 64.77 304.99C64.66 305.09 64.5 305.13 64.84 304.95C64.71 305.02 64.59 305.12 64.45 305.19C64.39 305.22 64.33 305.24 64.28 305.28C64.17 305.33 64.24 305.3 64.46 305.21C64.41 305.23 64.37 305.25 64.32 305.26C64.18 305.31 64.03 305.35 63.88 305.38C63.73 305.41 63.55 305.38 63.98 305.38C63.91 305.38 63.83 305.39 63.76 305.4C63.63 305.4 63.51 305.4 63.39 305.4C63.1 305.39 63.78 305.48 63.49 305.41C63.39 305.39 63.3 305.37 63.2 305.34C63.05 305.29 62.96 305.18 63.28 305.38C63.22 305.34 63.14 305.31 63.08 305.28C63.04 305.26 63 305.23 62.95 305.2C62.7 305.06 63.22 305.45 63.02 305.26C62.97 305.21 62.92 305.17 62.87 305.12C62.77 305.02 62.71 304.85 62.93 305.22C62.85 305.08 62.76 304.96 62.69 304.81C62.63 304.7 62.69 304.63 62.76 304.98C62.74 304.89 62.7 304.81 62.68 304.72C62.66 304.65 62.65 304.59 62.63 304.52C62.57 304.27 62.67 304.96 62.64 304.58C62.64 304.44 62.64 304.3 62.64 304.17C62.65 304.02 62.73 303.87 62.62 304.3C62.64 304.21 62.65 304.12 62.68 304.03C62.7 303.96 62.72 303.9 62.74 303.84C62.86 303.49 62.6 304.1 62.72 303.89C62.79 303.77 62.86 303.66 62.93 303.55C62.72 303.91 62.76 303.76 62.86 303.65C62.92 303.59 62.99 303.53 63.05 303.47C62.78 303.76 62.83 303.63 62.96 303.55C63.06 303.49 63.38 303.35 62.91 303.55C63.29 303.39 63.59 303.23 63.81 302.86C64 302.54 64.08 302.06 63.96 301.7C63.84 301.34 63.62 300.99 63.27 300.8C62.92 300.61 62.48 300.5 62.11 300.65L62.12 300.62Z" fill="black"/>
<path d="M34.31 300.23C34.01 300.94 33.82 301.6 33.74 302.38C33.68 303.01 33.74 303.64 33.86 304.25C34.09 305.48 34.74 306.65 35.63 307.53C36.23 308.13 37.14 308.07 37.75 307.53C39.67 305.84 40.46 303.06 39.85 300.6C39.66 299.84 38.76 299.31 38 299.55C37.24 299.79 36.75 300.58 36.95 301.4C36.98 301.52 37.01 301.64 37.03 301.76C37.09 302.09 37 301.43 37.03 301.76C37.05 302 37.06 302.25 37.05 302.49C37.05 302.61 37.04 302.73 37.03 302.86C37.01 303.09 37.06 302.71 37.05 302.7C37.06 302.71 37.03 302.84 37.02 302.86C36.98 303.1 36.92 303.34 36.85 303.57C36.82 303.67 36.78 303.78 36.74 303.88C36.72 303.94 36.62 304.17 36.72 303.93C36.82 303.7 36.74 303.89 36.72 303.93C36.62 304.14 36.51 304.34 36.39 304.54C36.32 304.64 36.25 304.74 36.18 304.84C36.08 304.99 36.39 304.59 36.27 304.73C36.23 304.78 36.18 304.84 36.14 304.89C35.98 305.07 35.81 305.25 35.62 305.41H37.74C37.65 305.33 37.57 305.24 37.49 305.15C37.45 305.11 37.42 305.07 37.39 305.03C37.27 304.9 37.58 305.29 37.48 305.14C37.35 304.95 37.23 304.77 37.12 304.57C37.06 304.46 37.01 304.35 36.96 304.25C36.88 304.09 37.08 304.56 37.02 304.39C37 304.34 36.98 304.29 36.96 304.24C36.88 304.01 36.81 303.78 36.77 303.55C36.76 303.48 36.7 303.12 36.74 303.39C36.77 303.65 36.74 303.45 36.74 303.39C36.74 303.32 36.73 303.26 36.72 303.19C36.71 302.96 36.71 302.74 36.72 302.51C36.72 302.46 36.73 302.4 36.74 302.35C36.75 302.16 36.68 302.69 36.72 302.51C36.74 302.39 36.76 302.27 36.79 302.16C36.81 302.06 36.84 301.95 36.88 301.85C36.92 301.74 37.09 301.3 36.9 301.76C37.06 301.37 37.17 301.03 37.05 300.6C36.95 300.25 36.69 299.87 36.36 299.7C36.01 299.52 35.59 299.42 35.2 299.55C34.86 299.66 34.45 299.89 34.3 300.24L34.31 300.23Z" fill="black"/>
<path d="M112.31 284.6C111.7 285.33 111.37 286.11 111.3 287.06C111.24 287.87 111.48 288.66 111.81 289.38C112.41 290.69 113.73 291.87 115.16 292.13C116.81 292.42 118.45 291.74 119.31 290.28C120 289.11 120.12 287.61 119.75 286.31C119.32 284.82 118.15 283.41 116.55 283.16C116.14 283.1 115.77 283.09 115.39 283.31C115.08 283.49 114.78 283.85 114.7 284.21C114.54 284.93 114.92 285.92 115.75 286.06C115.87 286.08 115.98 286.1 116.1 286.14C116.15 286.15 116.19 286.17 116.24 286.19C116.41 286.24 115.86 286 116.06 286.12C116.16 286.17 116.26 286.23 116.35 286.28C116.38 286.3 116.41 286.33 116.44 286.34C116.07 286.16 116.21 286.16 116.35 286.28C116.42 286.34 116.48 286.41 116.55 286.48C116.59 286.52 116.62 286.57 116.66 286.61C116.35 286.3 116.48 286.37 116.56 286.49C116.61 286.57 116.66 286.65 116.71 286.73C116.74 286.78 116.76 286.83 116.79 286.88C116.94 287.16 116.7 286.64 116.74 286.76C116.81 286.95 116.88 287.14 116.92 287.35C116.96 287.51 116.95 287.92 116.93 287.35C116.93 287.47 116.95 287.58 116.95 287.7C116.95 287.81 116.95 287.92 116.95 288.02C116.95 288.07 116.95 288.12 116.94 288.17C116.93 288.43 117.02 287.75 116.96 288C116.91 288.23 116.85 288.44 116.79 288.67C116.73 288.88 116.88 288.44 116.88 288.47C116.88 288.51 116.83 288.58 116.81 288.62C116.76 288.71 116.71 288.8 116.65 288.88C116.44 289.2 116.9 288.62 116.66 288.86C116.58 288.94 116.5 289.02 116.42 289.09C116.24 289.26 116.76 288.87 116.54 288.99C116.49 289.02 116.44 289.05 116.4 289.08C116.27 289.16 115.95 289.24 116.44 289.08C116.32 289.12 116.21 289.16 116.09 289.19C116.04 289.2 115.98 289.21 115.93 289.22C116.4 289.1 116.17 289.19 116 289.2C115.89 289.2 115.79 289.19 115.68 289.18C116.22 289.21 115.81 289.19 115.64 289.14C115.47 289.09 115.21 288.91 115.64 289.15C115.53 289.08 115.41 289.03 115.29 288.96C115.23 288.92 115.18 288.89 115.12 288.85C114.9 288.7 115.41 289.1 115.21 288.92C115.13 288.85 115.04 288.77 114.96 288.69C114.86 288.59 114.78 288.49 114.69 288.39C114.62 288.3 114.59 288.19 114.8 288.53C114.75 288.45 114.69 288.38 114.65 288.31C114.58 288.2 114.51 288.08 114.45 287.96C114.42 287.9 114.39 287.84 114.36 287.78C114.59 288.23 114.43 287.95 114.39 287.82C114.35 287.69 114.31 287.57 114.29 287.44C114.27 287.31 114.27 287.09 114.3 287.58C114.3 287.52 114.29 287.45 114.28 287.39C114.28 287.25 114.28 287.11 114.28 286.97C114.28 286.78 114.2 287.4 114.26 287.15C114.28 287.07 114.3 286.98 114.32 286.9C114.32 286.89 114.38 286.72 114.38 286.72C114.4 286.72 114.18 287.13 114.34 286.84C114.37 286.78 114.4 286.72 114.44 286.67C114.64 286.36 114.25 286.89 114.41 286.7C114.67 286.39 114.85 286.06 114.85 285.64C114.85 285.27 114.69 284.83 114.41 284.58C113.85 284.07 112.83 283.94 112.29 284.58L112.31 284.6Z" fill="black"/>
<path d="M113.04 285.98C111.38 285.93 109.87 284.81 108.99 283.26C108.6 282.58 108.28 281.6 108.25 280.93C108.22 280.44 108.24 280 108.31 279.69C108.36 279.45 108.43 279.21 108.51 278.97C108.51 278.95 108.61 278.73 108.55 278.86C108.77 278.36 108.84 278.7 108.23 279.02L107.07 279.17H107.09L106.19 278.48C106.19 278.48 105.96 277.89 106.02 277.87C106.02 277.87 106.02 278.01 106.02 278.02C106.01 278.08 106.01 278.15 106.01 278.21C105.99 278.57 106.05 277.99 106.01 278.23C105.93 278.65 105.84 279.07 105.72 279.48C105.46 280.39 105.08 281.33 104.42 281.99C103.11 283.28 100.99 283.59 99.26 283.7C98.45 283.75 97.76 284.35 97.76 285.2C97.76 285.97 98.45 286.75 99.26 286.7C101.58 286.55 104.01 286.11 105.9 284.66C107.79 283.21 108.71 280.75 108.99 278.44C109.13 277.3 108.52 275.88 107.08 276.28C106 276.58 105.57 278.07 105.39 279.05C104.99 281.22 105.51 283.52 106.77 285.34C108.23 287.45 110.45 288.89 113.05 288.97C114.98 289.03 114.98 286.03 113.05 285.97L113.04 285.98Z" fill="black"/>
<path d="M94.08 285.48C93.57 287.34 93.8 289.28 94.64 291C94.85 291.43 95.46 291.8 95.94 291.74C96.7 291.65 97.41 291.46 98.05 291.03C98.69 290.6 99.18 290.1 99.59 289.47C100.34 288.33 100.61 286.8 100.19 285.49C100.07 285.12 99.84 284.79 99.5 284.59C99.18 284.4 98.7 284.32 98.34 284.44C97.59 284.68 97.04 285.49 97.29 286.29C97.34 286.45 97.38 286.62 97.41 286.79L97.36 286.39C97.4 286.67 97.4 286.95 97.36 287.23L97.41 286.83C97.37 287.15 97.28 287.45 97.15 287.75L97.3 287.39C97.17 287.69 97.01 287.96 96.81 288.22L97.04 287.92C96.85 288.16 96.64 288.37 96.4 288.56L96.7 288.33C96.47 288.5 96.24 288.64 95.98 288.75L96.34 288.6C96.09 288.7 95.84 288.77 95.58 288.8L95.98 288.75H95.92L97.22 289.5C97.17 289.39 97.11 289.27 97.06 289.16L97.21 289.52C97 289.01 96.86 288.48 96.79 287.94L96.84 288.34C96.77 287.79 96.77 287.25 96.84 286.7L96.79 287.1C96.83 286.83 96.88 286.56 96.96 286.3C97.17 285.54 96.7 284.63 95.91 284.45C95.12 284.27 94.29 284.69 94.06 285.5L94.08 285.48Z" fill="black"/>
<path d="M25.02 237.16C25.5 237.21 25.18 237.17 25.05 237.14C24.83 237.09 25.39 237.32 25.07 237.14C25.01 237.1 24.77 236.93 24.97 237.09C25.18 237.26 24.88 237 24.83 236.96C24.51 236.66 24.24 236.32 23.94 236.01C23.03 235.05 21.88 234.46 20.53 234.71C19.18 234.96 18.25 236.09 17.78 237.28C17.28 238.54 17.51 239.9 18.14 241.07C18.77 242.24 19.85 243.2 20.9 244.05C21.22 244.31 21.53 244.49 21.96 244.49C22.33 244.49 22.77 244.33 23.02 244.05C23.52 243.5 23.67 242.46 23.02 241.93C22.63 241.62 22.25 241.3 21.88 240.96C21.7 240.79 21.52 240.61 21.35 240.43C21.27 240.34 21.19 240.25 21.11 240.15C21.08 240.11 21.05 240.06 21.01 240.03C21.23 240.2 21.11 240.16 21.03 240.04C20.89 239.84 20.77 239.64 20.66 239.42C20.64 239.38 20.62 239.31 20.59 239.28C20.59 239.28 20.69 239.55 20.64 239.4C20.6 239.27 20.55 239.14 20.52 239C20.5 238.94 20.49 238.87 20.48 238.8C20.44 238.65 20.51 238.98 20.5 238.98C20.53 238.92 20.5 238.75 20.5 238.67C20.5 238.64 20.52 238.57 20.5 238.54C20.56 238.7 20.44 238.85 20.48 238.67C20.51 238.55 20.53 238.44 20.57 238.32C20.58 238.28 20.6 238.24 20.61 238.19C20.66 238.01 20.47 238.46 20.56 238.3C20.61 238.22 20.64 238.14 20.69 238.06C20.73 238 20.85 237.88 20.86 237.8C20.86 237.84 20.62 238.07 20.79 237.9C20.83 237.86 20.87 237.82 20.91 237.78C20.93 237.76 21.03 237.69 21.04 237.66C21.04 237.67 20.78 237.83 20.9 237.77C20.98 237.73 21.07 237.67 21.15 237.62C21.19 237.59 21.34 237.53 21.12 237.62C20.9 237.71 21.07 237.64 21.13 237.62C21.17 237.62 21.21 237.6 21.25 237.59C21.45 237.53 21.13 237.63 21.09 237.61C21.11 237.61 21.53 237.63 21.22 237.61C20.91 237.59 21.31 237.67 21.35 237.66C21.32 237.66 21.01 237.48 21.21 237.6C21.24 237.62 21.28 237.64 21.31 237.66C21.38 237.7 21.66 237.9 21.45 237.74C21.24 237.58 21.49 237.78 21.54 237.83C21.61 237.89 21.68 237.96 21.74 238.03C21.87 238.17 22 238.31 22.13 238.45C22.45 238.81 22.78 239.14 23.16 239.44C23.72 239.87 24.33 240.08 25.03 240.15C25.81 240.22 26.56 239.41 26.53 238.65C26.49 237.77 25.87 237.23 25.03 237.15L25.02 237.16Z" fill="black"/>
<path d="M77.69 257.08C78.17 257.13 77.85 257.09 77.72 257.06C77.5 257.01 78.06 257.24 77.74 257.06C77.68 257.02 77.44 256.85 77.64 257.01C77.85 257.18 77.55 256.92 77.5 256.88C77.18 256.58 76.91 256.24 76.61 255.93C75.7 254.97 74.55 254.38 73.2 254.63C71.85 254.88 70.92 256.01 70.45 257.2C69.95 258.46 70.18 259.82 70.81 260.99C71.44 262.16 72.52 263.12 73.57 263.97C73.89 264.23 74.2 264.41 74.63 264.41C75 264.41 75.44 264.25 75.69 263.97C76.19 263.42 76.34 262.38 75.69 261.85C75.3 261.54 74.92 261.22 74.55 260.88C74.37 260.71 74.19 260.53 74.02 260.35C73.94 260.26 73.86 260.17 73.78 260.07C73.75 260.03 73.72 259.98 73.68 259.95C73.9 260.12 73.78 260.08 73.7 259.96C73.56 259.76 73.44 259.56 73.33 259.34C73.31 259.3 73.29 259.23 73.26 259.2C73.26 259.2 73.36 259.47 73.31 259.32C73.27 259.19 73.22 259.06 73.19 258.92C73.17 258.86 73.16 258.79 73.15 258.72C73.11 258.57 73.18 258.9 73.17 258.9C73.2 258.84 73.17 258.67 73.17 258.59C73.17 258.56 73.19 258.49 73.17 258.46C73.23 258.62 73.11 258.77 73.15 258.59C73.18 258.47 73.2 258.36 73.24 258.24C73.25 258.2 73.27 258.16 73.28 258.11C73.33 257.93 73.14 258.38 73.23 258.22C73.28 258.14 73.31 258.06 73.36 257.98C73.4 257.92 73.52 257.8 73.53 257.72C73.53 257.76 73.29 257.99 73.46 257.82C73.5 257.78 73.54 257.74 73.58 257.7C73.6 257.68 73.7 257.61 73.71 257.58C73.71 257.59 73.45 257.75 73.57 257.69C73.65 257.65 73.74 257.59 73.82 257.54C73.86 257.51 74.01 257.45 73.79 257.54C73.57 257.63 73.74 257.56 73.8 257.54C73.84 257.54 73.88 257.52 73.92 257.51C74.12 257.45 73.8 257.55 73.76 257.53C73.78 257.53 74.2 257.55 73.89 257.53C73.58 257.51 73.98 257.59 74.02 257.58C73.99 257.58 73.68 257.4 73.88 257.52C73.91 257.54 73.95 257.56 73.98 257.58C74.05 257.62 74.33 257.82 74.12 257.66C73.91 257.5 74.16 257.7 74.21 257.75C74.28 257.81 74.35 257.88 74.41 257.95C74.54 258.09 74.67 258.23 74.8 258.37C75.12 258.73 75.45 259.06 75.83 259.36C76.39 259.79 77 260 77.7 260.07C78.48 260.14 79.23 259.33 79.2 258.57C79.16 257.69 78.54 257.15 77.7 257.07L77.69 257.08Z" fill="black"/>
<path d="M94.52 259.06L82.49 260.85C78.84 268.3 78.35 268.78 78.35 268.78C74.86 272.23 71.01 270.47 67.25 274.59C66.57 275.34 65.85 276.32 65.62 277.66C65.33 279.38 65.71 281.72 67.25 282.57C68.96 283.51 71.03 283.39 72.96 283.16C79.81 282.34 84.85 280.41 88.32 279.34C95.96 276.98 96.45 277.21 97.22 276.11C100.83 270.93 94.52 259.07 94.52 259.06Z" fill="white"/>
<path d="M94.12 257.62C91.99 257.94 89.86 258.25 87.73 258.57L83.57 259.19C82.68 259.32 81.77 259.29 81.19 260.1C80.49 261.09 80.06 262.4 79.51 263.48C79.1 264.3 78.68 265.12 78.25 265.93C77.91 266.58 77.49 267.2 77.17 267.86C77.04 268.12 77.01 267.88 77.29 267.73C76.96 267.91 76.67 268.3 76.35 268.52C75.87 268.85 75.34 269.12 74.79 269.32C72.68 270.12 70.43 270.38 68.49 271.61C66.55 272.84 64.61 274.88 64.18 277.27C63.81 279.32 64.13 281.78 65.7 283.28C67.56 285.06 70.61 284.94 72.97 284.67C75.69 284.35 78.39 283.84 81.04 283.15C85.24 282.05 89.34 280.58 93.51 279.37C95.3 278.85 97.37 278.53 98.5 276.91C100.73 273.71 99.83 269.12 98.8 265.66C98.05 263.13 97.03 260.66 95.82 258.31C94.93 256.59 92.34 258.11 93.23 259.82C94.89 263.03 96.32 266.62 96.75 270.23C96.88 271.35 96.93 272.54 96.67 273.64C96.56 274.1 96.42 274.54 96.18 274.96C96.13 275.06 95.79 275.58 95.95 275.33C96.09 275.12 95.93 275.35 95.87 275.41C95.64 275.63 95.97 275.35 95.92 275.39C95.85 275.44 95.76 275.5 95.68 275.54C95.52 275.61 95.48 275.64 95.68 275.55C95.53 275.61 95.38 275.67 95.22 275.72C94.34 276.01 93.45 276.26 92.56 276.51C86 278.4 79.57 280.92 72.75 281.68C71.29 281.84 68.69 282.22 67.59 280.93C66.67 279.84 66.9 277.8 67.55 276.66C69.35 273.48 72.86 273.28 75.9 272.08C77.51 271.44 79.1 270.5 79.99 268.98C81.39 266.61 82.56 264.08 83.77 261.62L82.87 262.31C86.88 261.71 90.89 261.12 94.9 260.52C96.8 260.24 95.99 257.35 94.1 257.63L94.12 257.62Z" fill="black"/>
<path d="M87.76 187.94C88.66 193.62 89.56 199.31 90.46 204.99C81.92 207.01 73.39 209.03 64.85 211.04" fill="black"/>
<path d="M86.31 188.33C87.21 194.01 88.11 199.7 89.01 205.38L90.06 203.53C81.52 205.55 72.99 207.57 64.45 209.58C62.57 210.02 63.37 212.92 65.25 212.47C73.79 210.45 82.32 208.43 90.86 206.42C91.71 206.22 92.03 205.35 91.91 204.57C91.01 198.89 90.11 193.2 89.21 187.52C88.91 185.62 86.02 186.43 86.32 188.32L86.31 188.33Z" fill="white"/>
<path d="M55.43 62.85C41.57 67.06 37.21 72.21 35.87 76.25C35.27 78.07 34.54 82.07 31.28 86.33C29.91 88.12 28 89.43 26.56 91.16C21.8 96.91 22.18 104.23 20.62 113.46C20.62 113.46 20.02 116.99 4.96001 146.98C7.53001 149.97 10.1 152.97 12.66 155.96" fill="black"/>
<path d="M7.02 146.62L4.52 158.23C4.15 159.94 3.64 161.73 5.39 162.86C6.98 163.88 8.85 164.6 10.54 165.44C12.23 166.28 13.78 163.71 12.05 162.85C10.56 162.11 9.07 161.37 7.59 160.63C7.42 160.55 7.26 160.47 7.1 160.38C6.82 160.17 6.81 160.26 7.1 160.66C7.03 160.64 7.26 159.75 7.28 159.69L7.78 157.37L9.92 147.42C10.33 145.54 7.43 144.73 7.03 146.62H7.02Z" fill="black"/>
</g>
<defs>
<clipPath id="clip0_1_58">
<rect width="151.66" height="308.38" fill="white"/>
</clipPath>
</defs>
</svg>
