<svg width="117" height="301" viewBox="0 0 117 301" fill="none" xmlns="http://www.w3.org/2000/svg">
<g clip-path="url(#clip0_1_9)">
<path d="M104.27 24.37L107.32 31.26L108.8 34.61L109.54 36.29C109.77 36.81 109.99 37.73 110.36 38.15L110.49 38.45L110.94 38C110.94 38 110.59 38.03 110.5 38.03C110.06 38.05 109.63 38.06 109.19 38.14C108.34 38.29 107.53 38.66 106.84 39.17C105.27 40.32 104.32 42.07 104.28 44.02C104.24 45.97 107.24 45.95 107.28 44.02C107.32 42.39 108.66 41.11 110.26 41.04C111.16 41 112.08 40.97 112.79 40.33C113.66 39.55 113.67 38.39 113.27 37.37C111.32 32.46 108.99 27.68 106.85 22.85C106.52 22.1 105.44 21.94 104.8 22.31C104.03 22.75 103.94 23.63 104.26 24.36L104.27 24.37Z" fill="black"/>
<path d="M88.68 33.43C90.83 33.09 92.25 42.78 100.56 45.81C102.16 46.39 102.89 46.53 104.55 47.32C108.5 49.2 110.84 53.62 111.06 57.99C111.1 58.74 111.09 59.51 111.3 60.23C111.5 60.89 111.88 61.48 112.21 62.09C114.31 66.04 113.82 71.23 111.02 74.72C112.15 76.98 111.06 79.95 108.96 81.36C106.26 83.17 103.02 82.33 101.67 81.9C98.25 80.81 96.27 78.32 95.59 77.47C88.03 67.96 84.67 34.07 88.68 33.44V33.43Z" fill="black"/>
<path d="M91.56 36.55C91.07 33.95 90.23 31.25 88.68 29.08C87.6 27.56 86.03 26.01 84.03 25.99C81.78 25.97 80.16 27.9 79.16 29.7C78.07 31.67 77.5 33.9 77.68 36.16C77.86 38.42 78.57 40.62 79.73 42.55C80.72 44.2 83.32 42.7 82.32 41.04C81.57 39.78 81.16 38.74 80.84 37.25C80.62 36.2 80.56 35.08 80.74 34.01C80.84 33.43 81.01 32.86 81.21 32.31C81.49 31.55 81.06 32.61 81.24 32.24C81.29 32.13 81.34 32.01 81.4 31.9C81.7 31.27 82.05 30.65 82.47 30.09C82.36 30.24 82.65 29.88 82.68 29.84C82.82 29.68 82.97 29.53 83.13 29.39C83.33 29.21 83.55 29.08 83.77 29.02C83.81 29.01 84.1 28.96 83.93 28.98C83.79 28.99 83.96 28.98 83.98 28.98C84.05 28.97 84.12 28.98 84.19 28.98C83.84 28.98 84.01 28.94 84.11 28.98C84.25 29.03 84.4 29.06 84.54 29.11C84.24 28.99 84.6 29.16 84.72 29.22C84.77 29.25 85.18 29.54 84.95 29.36C85.08 29.46 85.2 29.57 85.32 29.68C85.56 29.91 85.91 30.31 86.01 30.44C87.5 32.43 88.23 34.92 88.69 37.33C88.84 38.13 89.8 38.58 90.54 38.38C91.37 38.15 91.74 37.33 91.59 36.53L91.56 36.55Z" fill="black"/>
<path d="M80.74 35.78C77.79 37.94 74.85 40.11 71.9 42.27C71.58 42.5 71.22 42.75 70.83 42.69C70.4 42.63 70.11 42.23 69.88 41.86C68.7 40.02 69.72 37.79 68.73 35.2C68.17 33.75 67.59 33.67 67.68 33.06C67.84 31.95 70 30.67 79.08 30.06" fill="black"/>
<path d="M69.66 34.48L51.21 36.01C53.63 33.75 57.19 33.39 60.43 32.72C63.67 32.05 67.25 30.56 68.25 27.4C69.62 23.09 65.34 18.24 67.26 14.15C68.04 12.49 69.67 11.42 71.25 10.47C77.9 6.47001 84.94 3.10001 92.22 0.430006C93.08 0.120006 94.03 -0.189994 94.88 0.140006C96.37 0.720006 96.53 2.72001 96.58 4.31001C96.72 8.41001 98.22 13.02 102 14.61C106.37 16.45 111.35 13.37 116.03 14.07C106.68 19.22 97.23 24.17 87.67 28.92" fill="black"/>
<path d="M71.79 46.9C83.31 54.28 89.81 67.17 98.37 77.84C100.62 80.64 103.07 83.37 104.47 86.68C105.49 89.09 105.92 91.71 106.31 94.3C111.06 125.77 112.5 157.73 110.58 189.5C95.91 191.13 80.73 187.84 68.06 180.26C61.94 176.61 55.76 171.8 48.64 172.24C45.03 172.46 40.46 173.67 38.5 170.63C37.77 169.5 37.7 168.06 37.07 166.87C34.51 162.04 26.61 165.28 21.93 162.44L43.68 82.21C45.92 73.93 48.44 65.2 54.74 59.38C58.23 56.16 62.7 54.03 65.74 50.38C67.49 48.29 70.44 45.52 72.28 47.53" fill="black"/>
<path d="M66.97 66.61C60.25 70.76 57.47 79.01 55.54 86.67C49.27 111.51 46.69 137.27 47.89 162.85C53.6 163.14 59.19 165.35 63.56 169.04C70.17 144.14 75.97 119.03 80.95 93.76C82.45 86.12 83.72 77.56 79.38 71.09" fill="white"/>
<path d="M68.78 60.77C69.23 66.72 69.08 72.72 68.25 78.63L69.3 77.58C66.41 78.16 63.8 79.55 61.66 81.56C60.25 82.88 62.37 85 63.78 83.68C65.56 82.01 67.7 80.95 70.1 80.47C70.55 80.38 71.08 79.89 71.15 79.42C72.01 73.23 72.25 67 71.78 60.76C71.64 58.85 68.64 58.83 68.78 60.76V60.77Z" fill="black"/>
<path d="M70.09 79.97C70.29 80.04 70.49 80.12 70.69 80.2C70.96 80.3 70.58 80.15 70.74 80.22C70.84 80.27 70.93 80.31 71.03 80.35C71.42 80.53 71.79 80.72 72.16 80.93C72.53 81.14 72.86 81.34 73.19 81.56C73.37 81.68 73.54 81.8 73.71 81.92C73.8 81.98 73.88 82.05 73.97 82.11C73.8 81.98 73.92 82.07 74.02 82.15C74.67 82.67 75.27 83.23 75.83 83.84C76.12 84.15 76.39 84.48 76.65 84.81C76.56 84.7 76.56 84.7 76.65 84.81C76.71 84.9 76.78 84.98 76.84 85.07C76.98 85.26 77.11 85.45 77.23 85.65C77.66 86.31 78.58 86.64 79.28 86.19C79.94 85.77 80.28 84.84 79.82 84.14C77.68 80.86 74.56 78.4 70.88 77.07C70.14 76.8 69.2 77.37 69.03 78.12C68.84 78.97 69.29 79.68 70.08 79.97H70.09Z" fill="black"/>
<path d="M82.34 107.44L94.85 104.38C95.24 104.29 95.7 104.21 96 104.47C96.23 104.68 96.27 105.01 96.3 105.32C96.63 109.12 96.86 112.93 96.98 116.74C97.06 119.2 97.06 121.81 95.76 123.9C93.82 127.02 89.74 127.88 86.1 128.46C84.97 128.64 83.69 128.78 82.79 128.08" fill="white"/>
<path d="M48.2 164.12L46.13 171.28C45.88 172.15 45.63 173.11 46.03 173.93C46.35 174.59 47.03 175 47.68 175.34C50.94 177.04 54.6 177.98 58.28 178.08C58.85 178.1 59.45 178.08 59.93 177.78C60.48 177.44 60.76 176.81 61.01 176.22L63.84 169.47" fill="white"/>
<path d="M46.76 163.72L45.28 168.84C44.83 170.39 44.08 172.13 44.41 173.77C44.74 175.41 46.12 176.26 47.49 176.93C48.86 177.6 50.43 178.21 51.97 178.64C53.51 179.07 55.11 179.35 56.7 179.49C58.21 179.63 59.96 179.8 61.18 178.71C62.28 177.72 62.7 176.01 63.26 174.69L65.28 169.87C65.59 169.12 64.94 168.22 64.23 168.02C63.37 167.78 62.7 168.32 62.38 169.07L60.77 172.93L59.96 174.86C59.77 175.32 59.61 175.96 59.28 176.34C58.77 176.93 57.09 176.53 56.39 176.46C55.17 176.33 53.95 176.07 52.77 175.74C51.59 175.41 50.41 174.99 49.29 174.46C48.42 174.05 47.2 173.71 47.36 172.56C47.53 171.29 48.07 170 48.42 168.77L49.65 164.51C50.19 162.65 47.29 161.86 46.76 163.71V163.72Z" fill="black"/>
<path d="M38.36 176.87C38.42 176.78 38.49 176.7 38.55 176.61C38.68 176.43 38.4 176.78 38.55 176.61C38.67 176.46 38.79 176.31 38.92 176.17C39.18 175.88 39.45 175.61 39.73 175.35C39.87 175.22 40.02 175.1 40.17 174.97C40.27 174.89 40.39 174.8 40.22 174.93C40.29 174.88 40.36 174.83 40.43 174.78C40.76 174.54 41.1 174.32 41.45 174.12C41.8 173.92 42.13 173.77 42.48 173.6C42.68 173.5 42.26 173.68 42.48 173.6C42.58 173.56 42.68 173.52 42.78 173.48C42.96 173.41 43.14 173.35 43.32 173.29C43.69 173.18 44.06 173.08 44.43 173C44.62 172.96 44.81 172.93 45 172.9C44.87 172.92 44.82 172.92 44.98 172.9C45.11 172.89 45.23 172.88 45.36 172.87C46.14 172.81 46.9 172.22 46.86 171.37C46.83 170.61 46.2 169.8 45.36 169.87C41.49 170.18 38.01 172.16 35.77 175.33C35.32 175.97 35.63 177.03 36.31 177.38C37.08 177.79 37.88 177.53 38.36 176.84V176.87Z" fill="black"/>
<path d="M60.01 176.65C62.92 181.36 64.2 187.05 63.4 192.55C63.28 193.35 63.6 194.16 64.45 194.4C65.16 194.59 66.18 194.16 66.3 193.35C67.22 187.03 65.98 180.58 62.61 175.14C61.6 173.5 59 175.01 60.02 176.65H60.01Z" fill="black"/>
<path d="M31.54 178.09C42.19 182.38 52.34 187.9 61.75 194.49C64.07 196.11 66.49 197.73 68.61 199.62C69.85 200.72 69.56 201.76 69.15 203.23C68.7 204.82 68.25 206.41 67.79 207.99C66.07 214.02 64.33 220.05 62.58 226.08C60.83 232.11 58.97 238.44 57.14 244.62C56.34 247.33 55.75 250.26 54.61 252.85C54.28 253.61 53.78 254.65 52.95 254.98C52.62 255.11 52.69 255.06 52.41 255.08C52.81 255.05 52.25 255.05 52.08 255.01C48.8 254.31 45.61 253.04 42.44 252C39.01 250.88 35.61 249.87 32.06 249.2C20.63 247.04 10.16 240.97 2.54999 232.19L2.77999 234.01C9.94999 219.17 17.7 204.62 25.8 190.26C28.17 186.06 30.56 181.88 32.97 177.71C33.94 176.03 31.34 174.52 30.38 176.2C22.15 190.48 14.1 204.86 6.60999 219.55C4.41999 223.84 2.27999 228.16 0.189987 232.49C-0.120013 233.13 -0.0400126 233.77 0.419987 234.31C7.63999 242.64 17.45 248.69 28.14 251.4C30.2 251.92 32.3 252.2 34.36 252.71C36.31 253.19 38.23 253.79 40.14 254.41C43.68 255.54 47.19 256.89 50.81 257.79C52.29 258.16 53.6 258.21 54.93 257.28C57.02 255.82 57.72 253.18 58.41 250.88C60.37 244.31 62.31 237.74 64.23 231.16C66.15 224.58 68.01 218.16 69.87 211.65C70.32 210.06 70.78 208.47 71.23 206.89C71.68 205.31 72.3 203.65 72.52 201.99C72.94 198.87 70.5 197.26 68.32 195.59C57.32 187.18 45.19 180.37 32.35 175.2C30.56 174.48 29.78 177.38 31.55 178.09H31.54Z" fill="black"/>
<path d="M95.55 190.93C94.24 207.59 92.85 224.36 91.4 241.22C90.06 256.72 88.68 272.13 87.25 287.44C84.18 288.57 79.25 289.96 73.07 289.97C66.83 289.97 61.86 288.56 58.78 287.41C58.92 273.09 59.06 258.76 59.2 244.44" fill="black"/>
<path d="M50.68 178.78L51.82 186C51.94 186.78 52.95 187.28 53.67 187.05C54.51 186.78 54.85 186.04 54.72 185.2L53.58 177.98C53.46 177.2 52.45 176.7 51.73 176.93C50.89 177.2 50.55 177.94 50.68 178.78Z" fill="black"/>
<path d="M17.15 247.37L14.79 252.39C20.65 257.62 25.61 263.84 29.41 270.71C29.98 271.74 31.08 272.97 32.09 272.37C32.6 272.07 32.84 271.4 32.88 271.25C33.3 269.78 37.59 265.51 49.8 255.78" fill="black"/>
<path d="M15.5 252.62C14.8 253.54 13.47 253.97 12.49 254.49C11.42 255.05 10.39 255.76 9.76999 256.82C8.86999 258.35 9.19999 260.1 9.71999 261.69C10.24 263.28 10.86 264.85 11.54 266.39C14.18 272.41 18.04 277.92 22.74 282.51C25.46 285.17 28.49 287.52 31.72 289.52C32.75 290.16 33.89 289.31 33.98 288.22C34.25 284.88 32.46 281.99 30.8 279.24C29.35 276.85 27.62 273.58 29.42 270.93C30.51 269.33 27.91 267.82 26.83 269.42C24.9 272.27 25.67 275.81 27.07 278.71C28.56 281.79 31.28 284.58 30.99 288.22L33.25 286.92C26.65 282.83 21.08 277.19 17.08 270.53C15.14 267.3 13.14 263.59 12.32 259.87C11.92 258.08 13.11 257.51 14.54 256.79C15.97 256.07 17.15 255.37 18.11 254.11C19.28 252.57 16.67 251.08 15.52 252.6L15.5 252.62Z" fill="black"/>
<path d="M59.69 287.21C58.72 290.24 58.04 294.41 61.09 296.53C62.76 297.69 65.03 297.85 66.98 298.2C69.34 298.62 71.7 298.98 74.08 299.29C83.53 300.52 93.08 300.82 102.58 300.19C103.67 300.12 104.51 298.96 103.88 297.93C102.13 295.09 99.82 292.67 97.07 290.79C95.7 289.85 94.22 289.09 92.68 288.46C91.97 288.17 91.25 287.93 90.51 287.71C90.05 287.57 89.22 287.44 89.12 286.91C88.75 285.02 85.86 285.82 86.23 287.71C86.54 289.31 88 290.06 89.43 290.52C91 291.02 92.49 291.56 93.94 292.37C96.96 294.07 99.48 296.5 101.3 299.44L102.6 297.18C94.22 297.73 85.81 297.58 77.46 296.68C73.27 296.23 69.07 295.61 64.94 294.75C63.38 294.43 62.09 294.01 61.89 292.26C61.73 290.83 62.17 289.35 62.6 288C63.19 286.16 60.29 285.37 59.71 287.2L59.69 287.21Z" fill="black"/>
<path d="M90.04 289.93C90.04 289.93 89.98 289.98 89.94 290L90.24 289.77C89.76 290.14 89.23 290.44 88.67 290.68L89.03 290.53C88.45 290.77 87.85 290.94 87.22 291.03L87.62 290.98C87.62 290.98 87.54 290.99 87.5 291C87.29 291 87.1 291.04 86.92 291.13C86.73 291.19 86.57 291.29 86.44 291.44C86.18 291.7 85.98 292.13 86 292.5C86.02 292.87 86.14 293.29 86.44 293.56C86.71 293.81 87.12 294.05 87.5 294C88.31 293.9 89.07 293.75 89.83 293.43C90.24 293.26 90.64 293.08 91.03 292.86C91.42 292.64 91.79 292.35 92.16 292.06C92.44 291.84 92.6 291.34 92.6 291C92.6 290.63 92.44 290.19 92.16 289.94C91.88 289.69 91.5 289.48 91.1 289.5L90.7 289.55C90.45 289.62 90.23 289.75 90.04 289.94V289.93Z" fill="black"/>
<path d="M27.63 272.45L25.08 269.38C24.85 269.1 24.37 268.94 24.02 268.94C23.65 268.94 23.21 269.1 22.96 269.38C22.71 269.66 22.5 270.04 22.52 270.44L22.57 270.84C22.64 271.09 22.77 271.31 22.96 271.5L25.51 274.57C25.74 274.85 26.22 275.01 26.57 275.01C26.94 275.01 27.38 274.85 27.63 274.57C27.88 274.29 28.09 273.91 28.07 273.51L28.02 273.11C27.95 272.86 27.82 272.64 27.63 272.45Z" fill="black"/>
</g>
<defs>
<clipPath id="clip0_1_9">
<rect width="116.03" height="300.51" fill="white"/>
</clipPath>
</defs>
</svg>
