<svg width="97" height="301" viewBox="0 0 97 301" fill="none" xmlns="http://www.w3.org/2000/svg">
<g clip-path="url(#clip0_1_93)">
<path d="M34.66 2.63001C32.55 0.400007 29.21 -0.359994 26.18 0.150006C23.16 0.670006 20.43 2.31001 18.09 4.28001C11.84 9.55001 7.96 17.19 5.85 25.09C3.75 32.99 3.27 41.22 2.81 49.38C2.73 50.76 2.71 52.32 3.67 53.32C4.38 54.07 5.46 54.31 6.47 54.5C12.13 55.57 17.87 56.19 23.62 56.36C24.6 56.39 25.64 56.39 26.47 55.86C27.86 54.98 28.06 53.07 28.12 51.43C28.46 42.03 29.2 32.16 34.26 24.23C36.41 20.86 39.34 17.82 40.21 13.91C41.38 8.64001 37.83 2.77001 32.62 1.36001" fill="black"/>
<path d="M35.82 0.589996C43.26 -1.43 51.85 2.23 55.54 9C59.1 15.53 58.12 23.5 59.41 30.83C60.45 36.71 63.04 42.32 66.85 46.92C67.56 47.78 68.35 48.66 68.59 49.76C68.83 50.85 68.48 51.99 68.03 53.01C65.48 58.73 59.07 62.46 52.84 61.86C49.14 61.5 45.07 58.84 45.39 55.14" fill="black"/>
<path d="M26.74 62.17C31.58 66.2 39.55 65.69 43.55 60.66C44.05 60.03 44.17 59.16 43.55 58.54C43.03 58.02 41.94 57.9 41.43 58.54C38.5 62.23 32.54 63.11 28.86 60.05C28.24 59.53 27.35 59.44 26.74 60.05C26.21 60.58 26.11 61.65 26.74 62.17Z" fill="black"/>
<path d="M7.07 59.28C14.21 65.92 18.33 75.38 19.7 85.03C21.07 94.68 19.88 104.54 17.61 114.03C16.97 116.69 16.25 119.35 15.98 122.08C15.92 122.69 15.91 123.39 16.36 123.8C16.83 124.23 17.55 124.14 18.18 124.01C26.39 122.33 34.93 118.47 42.79 121.38" fill="black"/>
<path d="M69.27 58.65C71.66 64.84 73.57 71.22 74.98 77.7L64.64 78.14C64.07 78.16 63.44 78.17 63.02 77.78C62.73 77.51 62.6 77.11 62.49 76.73L58.51 63.08" fill="black"/>
<path d="M72.65 80.6C73.56 86.4 74.26 92.24 74.73 98.09C74.96 100.96 75.14 103.84 75.26 106.71C75.32 108.19 75.38 109.67 75.41 111.15C75.42 111.64 75.58 113.51 74.98 113.79C74.45 114.04 72.3 111.18 71.81 110.69C70.51 109.38 69.14 108.14 67.75 106.93C64.7 104.29 61.53 101.78 58.27 99.41C55.01 97.04 51.76 95.14 48.06 93.77C46.41 93.16 44.68 92.72 43.06 92.03C42.06 91.6 41.1 91.04 40.63 90.02C40.19 89.06 40.31 87.94 40.36 86.73C40.47 84.3 40.66 81.86 40.87 79.43C40.94 78.58 41.01 77.72 41.17 76.88C41.23 76.6 41.3 76.32 41.37 76.05C41.44 75.8 41.59 75.86 41.37 75.89C41.03 75.93 41.24 75.99 41.22 75.97C41.29 76.05 41.73 76.19 41.82 76.24C42.56 76.67 43.2 77.29 43.81 77.88C47.41 81.33 50.63 85.07 54.52 88.21C58.81 91.67 63.49 94.6 68.43 97.04C69.65 97.64 70.87 96.66 70.63 95.35C69.43 88.82 68.23 82.29 67.03 75.75C66.68 73.85 63.79 74.66 64.14 76.55C65.34 83.08 66.54 89.61 67.74 96.15L69.94 94.46C65.03 92.04 60.34 89.15 56.11 85.67C52.34 82.57 49.23 78.86 45.68 75.53C44.47 74.39 42.89 72.92 41.11 72.97C39.5 73.02 38.69 74.33 38.35 75.74C37.81 78 37.78 80.43 37.61 82.74C37.46 84.78 37.19 86.89 37.34 88.93C37.6 92.43 40.13 94.19 43.2 95.28C45.18 95.98 47.21 96.57 49.13 97.43C51.21 98.35 53.16 99.5 55.03 100.79C58.52 103.2 61.86 105.84 65.08 108.6C66.66 109.95 68.21 111.34 69.67 112.82C71.01 114.17 72.26 116.34 74.22 116.78C76.99 117.4 78.25 114.5 78.39 112.25C78.59 108.81 78.2 105.22 77.98 101.78C77.51 94.42 76.68 87.08 75.53 79.8C75.23 77.9 72.34 78.71 72.64 80.6H72.65Z" fill="black"/>
<path d="M16.17 125.12C8.76 159.64 3.48 194.62 0.360001 229.79C-0.169999 235.74 -0.539999 242.12 2.47 247.28C7.25 255.46 18.16 257.1 27.61 257.85C46.53 259.36 66.05 260.81 84.09 254.89C88.11 253.57 92.32 251.62 94.3 247.88C96.45 243.81 95.36 238.86 94.22 234.4C87.8 209.31 81.37 184.22 74.95 159.14" fill="black"/>
<path d="M51.84 56.96C46.02 61.19 41.98 67.55 40.86 74.68C40.73 75.48 41.06 76.29 41.91 76.53C42.62 76.73 43.63 76.29 43.76 75.48C44.76 69.13 48.26 63.26 53.37 59.55C54.02 59.07 54.35 58.25 53.91 57.5C53.53 56.85 52.52 56.48 51.86 56.96H51.84Z" fill="black"/>
<path d="M40.45 95.08C41.28 101.37 44.68 106.97 49.95 110.53C50.62 110.98 51.61 110.66 52 109.99C52.43 109.25 52.14 108.39 51.46 107.94C49.49 106.61 47.61 104.74 46.24 102.6C45.39 101.27 44.7 99.85 44.21 98.34C44.01 97.71 43.83 97.07 43.69 96.43C43.63 96.16 43.58 95.88 43.53 95.6C43.51 95.48 43.49 95.35 43.47 95.22C43.46 95.15 43.4 94.73 43.45 95.08C43.34 94.28 42.84 93.58 41.95 93.58C41.22 93.58 40.34 94.27 40.45 95.08Z" fill="black"/>
<path d="M50.63 108.92C52.13 122.21 49.67 135.57 48.02 148.84C47.56 152.51 47.77 157.25 51.21 158.59C52.91 159.25 54.8 158.77 56.59 158.42C60.81 157.59 65.18 157.55 69.41 158.29C71.03 158.57 72.94 158.89 74.11 157.72C75.07 156.76 75.05 155.23 74.97 153.88C74.18 141.12 73.34 128.31 70.59 115.83C70.2 114.06 69.65 112.12 68.1 111.17C66.5 110.19 64.47 110.63 62.61 110.88C58.66 111.42 54.58 110.92 50.88 109.45" fill="white"/>
<path d="M49.13 108.92C50.3 119.58 48.99 130.25 47.58 140.82C46.79 146.75 43.43 161.43 54.09 160.36C56.53 160.12 58.88 159.46 61.34 159.32C63.98 159.17 66.6 159.32 69.21 159.76C71.14 160.08 73.32 160.37 74.93 159.01C76.54 157.65 76.58 155.39 76.46 153.39C75.82 142.85 75.09 132.28 73.31 121.85C72.85 119.18 72.47 116.4 71.64 113.82C70.92 111.58 69.49 109.65 67.06 109.19C64.63 108.73 62.03 109.59 59.55 109.59C56.71 109.59 53.95 109.03 51.31 108.01C49.51 107.31 48.73 110.21 50.51 110.9C54.58 112.47 58.92 112.9 63.24 112.3C65.05 112.05 67.19 111.61 68.27 113.46C69.29 115.21 69.49 117.6 69.86 119.55C71.67 128.87 72.48 138.35 73.11 147.82C73.26 150.08 73.49 152.36 73.53 154.63C73.54 155.38 73.57 156.4 72.84 156.84C72.11 157.28 70.97 157.03 70.19 156.9C65.67 156.17 61.21 156.06 56.69 156.88C54.93 157.2 52.64 158.01 51.05 156.78C49.98 155.95 49.61 154.45 49.45 153.18C49.26 151.58 49.41 149.94 49.61 148.35C49.91 145.92 50.25 143.49 50.57 141.06C52 130.41 53.33 119.66 52.16 108.91C51.95 107.01 48.95 106.99 49.16 108.91L49.13 108.92Z" fill="black"/>
<path d="M5.67 58.72C8.67 76.65 11.48 94.95 11.29 113.18C11.24 117.89 11 122.5 10.04 126.96C9.72 128.47 9.31 129.97 8.75 131.42C8.69 131.58 8.62 131.74 8.56 131.9C8.69 131.6 8.58 131.86 8.51 132C8.38 132.29 8.24 132.58 8.1 132.86C7.84 133.36 7.56 133.84 7.25 134.31C5.24 137.27 3.07 140.05 2.39 143.68C1.91 146.26 2.22 148.92 3.68 151.14C5.03 153.18 7.02 154.68 9.16 155.81C10.87 156.71 12.39 154.12 10.67 153.22C8.95 152.32 7.13 151.09 6.07 149.33C4.89 147.36 4.98 145.1 5.66 142.97C6.54 140.21 8.33 138.08 9.9 135.72C11.47 133.36 12.3 130.64 12.89 127.96C13.87 123.49 14.18 118.88 14.27 114.32C14.41 107.22 13.97 100.12 13.31 93.06C12.22 81.29 10.5 69.58 8.55 57.92C8.23 56.02 5.34 56.83 5.66 58.72H5.67Z" fill="black"/>
<path d="M19.74 89.98C16.2 91.96 11.12 90.23 9.54 86.5L9.87 67.5" fill="black"/>
<path d="M25.74 259.41L27.05 279.28C27.18 281.2 30.18 281.21 30.05 279.28L28.74 259.41C28.61 257.49 25.61 257.48 25.74 259.41Z" fill="black"/>
<path d="M35.94 260.33L35.65 277.18C35.62 279.11 38.62 279.11 38.65 277.18L38.94 260.33C38.97 258.4 35.97 258.4 35.94 260.33Z" fill="black"/>
<path d="M36.35 278.61C35.66 278.4 34.96 278.19 34.24 278.12C31.74 277.87 29.31 279.36 27.78 281.35C26.25 283.34 25.44 285.79 24.69 288.19C23.97 290.49 23.28 292.8 22.61 295.11C22.17 296.64 21.78 298.44 22.74 299.72C23.6 300.86 25.23 301.1 26.65 300.93C31.72 300.34 35.63 295.82 37.1 290.93C38.57 286.04 38.1 280.8 37.62 275.72" fill="black"/>
<path d="M78.05 257.24L79.59 273.32C79.67 274.13 80.22 274.82 81.09 274.82C81.84 274.82 82.67 274.13 82.59 273.32L81.05 257.24C80.97 256.43 80.42 255.74 79.55 255.74C78.8 255.74 77.97 256.43 78.05 257.24Z" fill="black"/>
<path d="M70.83 260.49L74.18 277.44C74.55 279.33 77.45 278.53 77.07 276.64L73.72 259.69C73.35 257.8 70.45 258.6 70.83 260.49Z" fill="black"/>
<path d="M76.84 275.92C78.06 273.98 80.9 273.62 83.01 274.52C85.12 275.42 86.67 277.26 88.11 279.05C90.47 281.99 92.76 284.99 94.97 288.04C96.11 289.62 97.29 291.59 96.56 293.4C95.99 294.8 94.45 295.54 92.97 295.89C88.18 297.03 82.8 295.16 79.75 291.29C77.31 288.2 76.3 284.05 73.36 281.45C72.66 280.83 71.85 280.29 71.41 279.48C69.98 276.87 73.03 274.14 75.64 272.72" fill="black"/>
<path d="M38.82 16.51C44.4 18.62 46.68 21.41 47.7 23.67C49.32 27.26 48.39 30.95 51.53 33.74C52.62 34.71 53.63 35.06 54.12 36.41C54.54 37.57 54.14 38.24 53.39 41.77C52.58 45.62 52.84 45.12 52.3 46.75C51.71 48.56 51.01 50.7 49.2 52.7C48.68 53.27 47.13 54.98 45.15 55.63C41.65 56.78 37.04 54.54 33.64 50.22" fill="white"/>
</g>
<defs>
<clipPath id="clip0_1_93">
<rect width="96.79" height="300.99" fill="white"/>
</clipPath>
</defs>
</svg>
